<svg width="5085" height="2676" viewBox="0 0 5085 2676" fill="none" xmlns="http://www.w3.org/2000/svg">
<g filter="url(#filter0_f_175_421)">
<ellipse cx="2542.5" cy="1338" rx="2276.5" ry="838" fill="url(#paint0_linear_175_421)" fill-opacity="0.8"/>
</g>
<path d="M3265.86 624.858L3605.2 825.697C3605.4 825.813 3605.52 826.024 3605.52 826.251V1229.33C3605.52 1229.55 3605.4 1229.77 3605.2 1229.88L3265.86 1430.72C3265.66 1430.84 3265.41 1430.84 3265.21 1430.72L2925.87 1229.88C2925.67 1229.77 2925.55 1229.55 2925.55 1229.33V826.251C2925.55 826.024 2925.67 825.813 2925.87 825.697L3265.21 624.858C3265.41 624.738 3265.66 624.738 3265.86 624.858Z" stroke="url(#paint1_linear_175_421)" stroke-width="63.103"/>
<path d="M3231.08 1128.31L3301.25 927.069" stroke="url(#paint2_linear_175_421)" stroke-width="63.103" stroke-linecap="round"/>
<path d="M3399.3 1106.61L3475.25 1030.77C3477.77 1028.26 3477.77 1024.19 3475.25 1021.68L3399.3 945.837" stroke="url(#paint3_linear_175_421)" stroke-width="63.103" stroke-linecap="round" stroke-linejoin="round"/>
<path d="M3133.65 945.837L3057.7 1021.68C3055.18 1024.19 3055.18 1028.26 3057.7 1030.77L3133.65 1106.61" stroke="url(#paint4_linear_175_421)" stroke-width="63.103" stroke-linecap="round" stroke-linejoin="round"/>
<g filter="url(#filter1_d_175_421)">
<path d="M1090.52 1347.77C1101 1349.13 1112.16 1352.55 1124.01 1358.02C1135.86 1363.49 1146.8 1371.24 1156.82 1381.26C1167.31 1391.29 1175.96 1403.59 1182.8 1418.18C1189.64 1432.3 1193.05 1448.71 1193.05 1467.39C1193.05 1490.18 1189.64 1509.78 1182.8 1526.18C1175.96 1542.59 1167.31 1556.26 1156.82 1567.2C1146.8 1577.68 1135.63 1586.11 1123.33 1592.49C1111.48 1598.42 1099.86 1602.97 1088.46 1606.16C1077.53 1609.35 1067.73 1611.4 1059.07 1612.32C1050.41 1612.77 1044.71 1613 1041.98 1613H962.684V1552.84H1037.2C1061.35 1552.84 1080.26 1545.1 1093.93 1529.6C1107.61 1514.11 1114.44 1493.37 1114.44 1467.39C1114.44 1442.79 1107.38 1422.05 1093.25 1405.19C1079.12 1388.33 1058.39 1379.89 1031.04 1379.89H962.684V1324.52H995.496C1005.52 1324.52 1015.78 1324.3 1026.26 1323.84C1036.74 1323.38 1046.54 1320.88 1055.65 1316.32C1064.77 1311.76 1072.06 1304.02 1077.53 1293.08C1083.45 1282.14 1086.41 1266.42 1086.41 1245.91C1086.41 1237.71 1085.27 1229.28 1083 1220.62C1080.72 1211.5 1076.16 1203.3 1069.32 1196.01C1062.49 1188.72 1052.69 1182.79 1039.93 1178.23C1027.17 1173.68 1010.31 1171.4 989.344 1171.4H962.684V1109.19H997.547C1018.97 1109.19 1039.7 1111.7 1059.75 1116.71C1079.81 1121.72 1097.58 1129.7 1113.07 1140.64C1128.57 1151.57 1140.87 1165.93 1149.99 1183.7C1159.1 1201.02 1163.66 1221.76 1163.66 1245.91C1163.66 1260.04 1161.38 1273.03 1156.82 1284.88C1152.27 1296.27 1146.57 1306.29 1139.73 1314.95C1132.9 1323.61 1124.92 1330.9 1115.81 1336.83C1107.15 1342.3 1098.72 1345.94 1090.52 1347.77ZM852.625 1109.19H934.656V1613H852.625V1109.19ZM1378.31 1227.45L1387.2 1267.1V1476.28V1477.65V1613H1304.48V1227.45H1378.31ZM1415.22 1244.54C1426.62 1238.16 1440.29 1233.38 1456.24 1230.19C1472.19 1226.54 1493.84 1224.72 1521.18 1224.72V1310.85C1508.42 1307.21 1492.92 1305.15 1474.7 1304.7C1464.67 1304.7 1454.42 1305.61 1443.93 1307.43C1433.91 1308.8 1424.34 1311.08 1415.22 1314.27V1244.54ZM1692.08 1613H1608.68V1227.45H1692.08V1613ZM1699.6 1104.41C1699.6 1118.08 1694.81 1129.7 1685.24 1139.27C1675.67 1148.38 1664.05 1152.94 1650.38 1152.94C1636.71 1152.94 1625.09 1148.16 1615.52 1138.59C1606.4 1129.02 1601.84 1117.62 1601.84 1104.41C1601.84 1090.73 1606.63 1079.11 1616.2 1069.54C1625.77 1059.97 1637.16 1055.19 1650.38 1055.19C1664.05 1055.19 1675.67 1059.97 1685.24 1069.54C1694.81 1079.11 1699.6 1090.73 1699.6 1104.41ZM1948.43 1616.42C1922.9 1616.42 1900.57 1610.95 1881.43 1600.01C1862.29 1588.62 1846.34 1573.58 1833.58 1554.89C1820.82 1536.21 1811.48 1514.79 1805.55 1490.64C1799.63 1466.48 1796.67 1441.19 1796.67 1414.76C1796.67 1379.21 1801.45 1349.36 1811.02 1325.21C1821.05 1301.05 1833.58 1281.46 1848.62 1266.42C1864.12 1250.92 1881.21 1239.99 1899.89 1233.61C1919.03 1227.23 1937.72 1224.04 1955.95 1224.04C1970.07 1224.04 1983.52 1225.63 1996.28 1228.82C2009.04 1232.01 2020.66 1236.57 2031.14 1242.49V1314.95C2023.85 1306.75 2015.19 1300.14 2005.16 1295.13C1995.59 1290.12 1985.11 1287.61 1973.72 1287.61C1960.05 1287.61 1947.51 1291.26 1936.12 1298.55C1925.18 1305.38 1915.84 1314.73 1908.09 1326.57C1900.35 1338.42 1894.42 1352.32 1890.32 1368.27C1886.22 1384.22 1884.17 1401.09 1884.17 1418.86C1884.17 1437.09 1886.22 1454.41 1890.32 1470.81C1894.88 1486.76 1901.03 1500.66 1908.78 1512.51C1916.98 1524.36 1926.55 1533.93 1937.49 1541.22C1948.88 1548.06 1961.41 1551.48 1975.09 1551.48C1986.48 1551.48 1996.73 1549.2 2005.85 1544.64C2014.96 1539.63 2023.39 1533.25 2031.14 1525.5V1596.59C2020.2 1602.06 2007.67 1606.85 1993.54 1610.95C1979.42 1614.6 1964.38 1616.42 1948.43 1616.42ZM2141.88 1227.45L2141.2 1613C2139.38 1640.8 2133.68 1664.5 2124.11 1684.09C2114.99 1703.69 2103.15 1719.87 2088.56 1732.63C2073.98 1745.39 2057.12 1754.5 2037.98 1759.97C2018.84 1765.44 1998.33 1768.18 1976.45 1768.18C1950.93 1768.18 1925.64 1763.62 1900.57 1754.5C1875.96 1745.85 1855.46 1731.03 1839.05 1710.07L1886.9 1662.9C1891.46 1670.65 1897.16 1677.03 1903.99 1682.04C1911.28 1687.06 1918.58 1690.93 1925.87 1693.66C1933.61 1696.4 1941.13 1698.22 1948.43 1699.13C1956.17 1700.5 1963.01 1701.18 1968.93 1701.18C1997.19 1701.18 2019.29 1692.98 2035.24 1676.57C2051.19 1660.17 2059.17 1632.14 2059.17 1592.49V1266.42L2068.05 1227.45H2141.88ZM2275.18 1081.85H2357.9V1613H2275.18V1081.85ZM2562.29 1269.84C2570.04 1277.58 2575.96 1286.7 2580.07 1297.18C2584.62 1307.21 2587.81 1317.92 2589.64 1329.31C2591.92 1340.25 2593.28 1351.41 2593.74 1362.8C2594.19 1374.2 2594.42 1385.36 2594.42 1396.3V1599.33V1613H2511.02V1403.14C2511.02 1387.64 2510.34 1372.83 2508.97 1358.7C2507.61 1344.58 2504.42 1332.04 2499.4 1321.11C2494.39 1310.17 2487.55 1301.74 2478.89 1295.81C2470.24 1289.43 2458.16 1286.24 2442.66 1286.24C2436.28 1286.24 2427.62 1287.38 2416.69 1289.66C2406.21 1291.48 2395.95 1294.67 2385.93 1299.23V1246.59C2398.23 1240.21 2411.45 1234.74 2425.57 1230.19C2440.16 1225.63 2454.29 1223.35 2467.96 1223.35C2488.46 1223.35 2505.78 1227.68 2519.91 1236.34C2534.04 1244.54 2548.17 1255.71 2562.29 1269.84ZM2801.55 1496.11C2801.55 1511.6 2803.6 1523.68 2807.7 1532.34C2811.8 1540.99 2817.5 1547.6 2824.79 1552.16C2832.54 1556.72 2840.97 1559.68 2850.09 1561.05C2859.66 1561.96 2869.68 1562.41 2880.16 1562.41V1613C2874.24 1613.91 2868.32 1614.6 2862.39 1615.05C2857.38 1615.51 2851.23 1615.73 2843.93 1615.73C2837.1 1616.19 2830.26 1616.42 2823.43 1616.42C2816.59 1616.42 2809.53 1616.19 2802.23 1615.73C2795.4 1615.28 2789.47 1614.6 2784.46 1613.68C2768.97 1610.95 2756.89 1604.34 2748.23 1593.86C2739.57 1582.92 2732.96 1571.07 2728.41 1558.31C2724.3 1545.1 2721.57 1532.34 2720.2 1520.03C2719.29 1507.73 2718.84 1498.16 2718.84 1491.32V1283.51H2668.25V1227.45H2718.84V1118.08H2801.55V1227.45H2863.07V1283.51H2801.55V1496.11ZM3065.42 1109.19V1550.79H3297.16V1613H2982.02V1109.19H3065.42ZM3443.45 1496.79C3443.45 1517.3 3447.55 1532.56 3455.75 1542.59C3464.41 1552.62 3476.71 1558.54 3492.66 1560.36V1615.73C3490.84 1616.19 3487.88 1616.42 3483.78 1616.42C3468.28 1616.42 3453.24 1614.37 3438.66 1610.27C3424.53 1606.16 3412 1599.56 3401.06 1590.44C3390.12 1581.33 3381.47 1569.25 3375.09 1554.21C3369.16 1539.17 3366.2 1520.71 3366.2 1498.84C3366.2 1477.88 3370.53 1459.88 3379.19 1444.84C3388.3 1429.34 3399.7 1416.81 3413.37 1407.24C3427.49 1397.21 3443.45 1389.92 3461.22 1385.36C3478.99 1380.35 3496.99 1377.84 3515.22 1377.84H3545.3V1426.38H3530.26C3521.15 1426.38 3511.58 1427.29 3501.55 1429.11C3491.52 1430.94 3482.18 1434.35 3473.52 1439.37C3464.86 1444.38 3457.57 1451.67 3451.65 1461.24C3446.18 1470.36 3443.45 1482.21 3443.45 1496.79ZM3656.04 1498.84C3656.04 1502.49 3656.27 1507.95 3656.73 1515.25C3657.18 1522.08 3658.09 1529.15 3659.46 1536.44C3660.83 1543.73 3662.88 1550.34 3665.61 1556.26C3668.8 1562.19 3672.9 1566.06 3677.92 1567.88L3656.04 1613.68C3650.12 1613.68 3643.74 1612.32 3636.9 1609.58C3630.52 1606.85 3624.14 1602.97 3617.76 1597.96C3611.84 1592.95 3606.6 1587.48 3602.04 1581.55C3597.94 1575.17 3594.75 1568.34 3592.47 1561.05C3587.91 1572.44 3578.8 1582.69 3565.12 1591.81C3551.91 1600.47 3537.1 1606.85 3520.69 1610.95V1559C3531.63 1556.72 3541.43 1552.39 3550.09 1546.01C3559.2 1539.17 3566.95 1531.2 3573.33 1522.08V1377.84C3573.33 1355.51 3572.19 1337.74 3569.91 1324.52C3567.63 1311.31 3563.76 1301.74 3558.29 1295.81C3552.82 1289.43 3545.98 1285.56 3537.78 1284.19C3530.03 1282.37 3520.69 1281.46 3509.75 1281.46C3499.73 1281.46 3490.16 1282.82 3481.04 1285.56C3472.38 1287.84 3464.18 1290.8 3456.43 1294.45C3449.14 1297.64 3442.53 1301.28 3436.61 1305.38C3431.14 1309.48 3427.04 1312.67 3424.3 1314.95L3393.54 1267.79C3398.1 1262.77 3404.94 1257.76 3414.05 1252.75C3423.17 1247.28 3433.65 1242.49 3445.5 1238.39C3457.35 1234.29 3470.11 1231.1 3483.78 1228.82C3497.9 1226.09 3512.49 1224.72 3527.53 1224.72C3541.2 1224.72 3554.42 1226.09 3567.18 1228.82C3580.39 1231.55 3592.24 1236.11 3602.72 1242.49C3613.66 1248.87 3623 1257.53 3630.75 1268.47C3638.95 1278.95 3644.65 1292.17 3647.84 1308.12C3651.03 1324.07 3653.08 1340.25 3653.99 1356.65C3655.36 1372.6 3656.04 1388.55 3656.04 1404.5V1493.37V1498.84ZM3790.03 1081.85H3872.74V1567.2C3872.29 1573.58 3871.6 1580.87 3870.69 1589.07C3869.78 1597.28 3869.1 1605.25 3868.64 1613H3790.03V1081.85ZM4127.04 1344.35C4132.51 1365.31 4135.24 1388.33 4135.24 1413.39C4135.24 1439.37 4132.05 1464.66 4125.67 1489.27C4119.75 1513.88 4110.4 1535.75 4097.64 1554.89C4085.34 1573.58 4069.62 1588.62 4050.48 1600.01C4031.79 1610.95 4009.69 1616.42 3984.17 1616.42C3968.22 1616.42 3952.95 1614.6 3938.37 1610.95C3923.78 1607.3 3911.25 1602.29 3900.77 1595.91V1524.82C3907.61 1532.56 3915.58 1538.94 3924.7 1543.96C3934.27 1548.97 3944.75 1551.48 3956.14 1551.48C3969.81 1551.48 3982.12 1548.06 3993.05 1541.22C4004.45 1534.39 4014.02 1525.27 4021.77 1513.88C4029.97 1502.03 4036.35 1488.13 4040.91 1472.18C4045.92 1456.23 4048.43 1439.14 4048.43 1420.91C4048.43 1403.14 4046.15 1386.27 4041.59 1370.32C4037.49 1354.37 4031.56 1340.25 4023.82 1327.94C4016.52 1315.64 4007.41 1305.84 3996.47 1298.55C3985.54 1291.26 3973.23 1287.61 3959.56 1287.61C3947.71 1287.61 3936.77 1290.12 3926.75 1295.13C3917.18 1299.69 3908.52 1306.52 3900.77 1315.64V1242.49C3911.25 1236.57 3922.87 1232.01 3935.63 1228.82C3948.39 1225.63 3961.61 1224.04 3975.28 1224.04C3990.32 1224.04 4005.59 1226.09 4021.08 1230.19C4036.58 1234.29 4050.93 1241.12 4064.15 1250.7C4077.82 1260.27 4090.12 1272.8 4101.06 1288.29C4112.46 1303.79 4121.11 1322.47 4127.04 1344.35Z" fill="white"/>
</g>
<g filter="url(#filter2_d_175_421)">
<path d="M2204.62 1743V1674.47H2222.33C2226.36 1674.47 2229.74 1674.84 2232.45 1675.57C2235.24 1676.3 2237.58 1677.37 2239.49 1678.76C2241.47 1680.15 2243.23 1681.88 2244.77 1683.93C2246.31 1685.98 2247.59 1688.33 2248.62 1690.97C2249.72 1693.54 2250.56 1696.32 2251.15 1699.33C2251.74 1702.34 2252.03 1705.64 2252.03 1709.23C2251.88 1714.44 2251.19 1719.13 2249.94 1723.31C2248.77 1727.42 2246.93 1730.94 2244.44 1733.87C2242.02 1736.8 2238.87 1739.08 2234.98 1740.69C2231.09 1742.23 2226.44 1743 2221.01 1743H2204.62ZM2216.72 1733.32H2220.68C2225.37 1733.32 2229.11 1732.33 2231.9 1730.35C2234.76 1728.3 2236.81 1725.47 2238.06 1721.88C2239.31 1718.29 2239.89 1714.11 2239.82 1709.34C2239.82 1704.28 2239.27 1699.88 2238.17 1696.14C2237.14 1692.4 2235.31 1689.5 2232.67 1687.45C2230.03 1685.4 2226.44 1684.37 2221.89 1684.37H2216.72V1733.32ZM2284.81 1744.21C2281.14 1744.21 2277.73 1743.62 2274.58 1742.45C2271.5 1741.28 2268.79 1739.59 2266.44 1737.39C2264.17 1735.12 2262.41 1732.33 2261.16 1729.03C2259.91 1725.73 2259.29 1721.99 2259.29 1717.81C2259.29 1713.56 2259.91 1709.74 2261.16 1706.37C2262.41 1703 2264.09 1700.14 2266.22 1697.79C2268.42 1695.44 2270.99 1693.68 2273.92 1692.51C2276.85 1691.26 2280.01 1690.64 2283.38 1690.64C2286.39 1690.64 2289.21 1691.15 2291.85 1692.18C2294.49 1693.21 2296.8 1694.78 2298.78 1696.91C2300.83 1698.96 2302.45 1701.57 2303.62 1704.72C2304.79 1707.8 2305.38 1711.39 2305.38 1715.5C2305.38 1716.23 2305.34 1717.11 2305.27 1718.14C2305.27 1719.17 2305.23 1720.05 2305.16 1720.78H2271.28C2271.43 1723.2 2271.9 1725.29 2272.71 1727.05C2273.52 1728.74 2274.58 1730.13 2275.9 1731.23C2277.22 1732.33 2278.69 1733.17 2280.3 1733.76C2281.91 1734.27 2283.6 1734.53 2285.36 1734.53C2286.9 1734.53 2288.37 1734.38 2289.76 1734.09C2291.23 1733.8 2292.58 1733.28 2293.83 1732.55C2295.15 1731.82 2296.4 1730.86 2297.57 1729.69L2303.95 1735.85C2302.34 1737.76 2300.5 1739.37 2298.45 1740.69C2296.47 1741.94 2294.31 1742.82 2291.96 1743.33C2289.69 1743.92 2287.3 1744.21 2284.81 1744.21ZM2271.5 1711.43H2293.28C2293.28 1709.67 2293.02 1708.09 2292.51 1706.7C2292.07 1705.31 2291.41 1704.13 2290.53 1703.18C2289.65 1702.23 2288.55 1701.53 2287.23 1701.09C2285.98 1700.58 2284.52 1700.32 2282.83 1700.32C2281.44 1700.32 2280.08 1700.54 2278.76 1700.98C2277.51 1701.35 2276.38 1702.01 2275.35 1702.96C2274.32 1703.91 2273.48 1705.09 2272.82 1706.48C2272.16 1707.87 2271.72 1709.52 2271.5 1711.43ZM2281.62 1687.56L2275.9 1683.93L2285.03 1665.67L2293.72 1671.94L2281.62 1687.56ZM2332.44 1743L2313.19 1691.85H2326.17L2339.26 1728.48H2337.5L2344.43 1711.76C2345.82 1708.24 2346.92 1704.79 2347.73 1701.42C2348.61 1698.05 2349.16 1694.86 2349.38 1691.85H2361.04C2360.67 1695.08 2359.87 1698.49 2358.62 1702.08C2357.45 1705.67 2356.09 1709.38 2354.55 1713.19L2342.23 1743H2332.44ZM2394.81 1744.21C2391.14 1744.21 2387.73 1743.62 2384.58 1742.45C2381.5 1741.28 2378.79 1739.59 2376.44 1737.39C2374.17 1735.12 2372.41 1732.33 2371.16 1729.03C2369.91 1725.73 2369.29 1721.99 2369.29 1717.81C2369.29 1713.56 2369.91 1709.74 2371.16 1706.37C2372.41 1703 2374.09 1700.14 2376.22 1697.79C2378.42 1695.44 2380.99 1693.68 2383.92 1692.51C2386.85 1691.26 2390.01 1690.64 2393.38 1690.64C2396.39 1690.64 2399.21 1691.15 2401.85 1692.18C2404.49 1693.21 2406.8 1694.78 2408.78 1696.91C2410.83 1698.96 2412.45 1701.57 2413.62 1704.72C2414.79 1707.8 2415.38 1711.39 2415.38 1715.5C2415.38 1716.23 2415.34 1717.11 2415.27 1718.14C2415.27 1719.17 2415.23 1720.05 2415.16 1720.78H2381.28C2381.43 1723.2 2381.9 1725.29 2382.71 1727.05C2383.52 1728.74 2384.58 1730.13 2385.9 1731.23C2387.22 1732.33 2388.69 1733.17 2390.3 1733.76C2391.91 1734.27 2393.6 1734.53 2395.36 1734.53C2396.9 1734.53 2398.37 1734.38 2399.76 1734.09C2401.23 1733.8 2402.58 1733.28 2403.83 1732.55C2405.15 1731.82 2406.4 1730.86 2407.57 1729.69L2413.95 1735.85C2412.34 1737.76 2410.5 1739.37 2408.45 1740.69C2406.47 1741.94 2404.31 1742.82 2401.96 1743.33C2399.69 1743.92 2397.3 1744.21 2394.81 1744.21ZM2381.5 1711.43H2403.28C2403.28 1709.67 2403.02 1708.09 2402.51 1706.7C2402.07 1705.31 2401.41 1704.13 2400.53 1703.18C2399.65 1702.23 2398.55 1701.53 2397.23 1701.09C2395.98 1700.58 2394.52 1700.32 2392.83 1700.32C2391.44 1700.32 2390.08 1700.54 2388.76 1700.98C2387.51 1701.35 2386.38 1702.01 2385.35 1702.96C2384.32 1703.91 2383.48 1705.09 2382.82 1706.48C2382.16 1707.87 2381.72 1709.52 2381.5 1711.43ZM2426.93 1743V1733.21H2441.34V1678.98H2427.59V1669.19H2453.88V1733.21H2468.18V1743H2426.93ZM2502.39 1744.1C2497.84 1744.1 2493.7 1743 2489.96 1740.8C2486.29 1738.53 2483.4 1735.37 2481.27 1731.34C2479.14 1727.31 2478.08 1722.65 2478.08 1717.37C2478.08 1712.31 2479.14 1707.76 2481.27 1703.73C2483.4 1699.7 2486.29 1696.51 2489.96 1694.16C2493.7 1691.81 2497.84 1690.64 2502.39 1690.64C2507.01 1690.64 2511.15 1691.81 2514.82 1694.16C2518.56 1696.51 2521.49 1699.7 2523.62 1703.73C2525.82 1707.76 2526.92 1712.31 2526.92 1717.37C2526.92 1722.65 2525.82 1727.31 2523.62 1731.34C2521.49 1735.37 2518.56 1738.53 2514.82 1740.8C2511.15 1743 2507.01 1744.1 2502.39 1744.1ZM2502.39 1734.2C2504.81 1734.2 2506.9 1733.5 2508.66 1732.11C2510.42 1730.64 2511.81 1728.66 2512.84 1726.17C2513.94 1723.6 2514.49 1720.67 2514.49 1717.37C2514.49 1713.92 2513.94 1710.95 2512.84 1708.46C2511.81 1705.97 2510.42 1704.06 2508.66 1702.74C2506.9 1701.35 2504.81 1700.65 2502.39 1700.65C2500.19 1700.65 2498.17 1701.35 2496.34 1702.74C2494.58 1704.06 2493.15 1705.97 2492.05 1708.46C2491.02 1710.95 2490.51 1713.92 2490.51 1717.37C2490.51 1720.67 2491.02 1723.6 2492.05 1726.17C2493.08 1728.66 2494.47 1730.64 2496.23 1732.11C2498.06 1733.5 2500.12 1734.2 2502.39 1734.2ZM2535.28 1761.37L2535.17 1691.74H2547.49V1698.89C2548.66 1696.98 2549.95 1695.44 2551.34 1694.27C2552.81 1693.02 2554.42 1692.11 2556.18 1691.52C2558.01 1690.93 2559.92 1690.64 2561.9 1690.64C2564.69 1690.64 2567.29 1691.23 2569.71 1692.4C2572.2 1693.5 2574.37 1695.19 2576.2 1697.46C2578.03 1699.73 2579.46 1702.56 2580.49 1705.93C2581.59 1709.23 2582.14 1713.12 2582.14 1717.59C2582.14 1722.06 2581.59 1725.99 2580.49 1729.36C2579.39 1732.73 2577.85 1735.52 2575.87 1737.72C2573.96 1739.92 2571.76 1741.57 2569.27 1742.67C2566.85 1743.77 2564.32 1744.32 2561.68 1744.32C2559.85 1744.32 2558.05 1744.1 2556.29 1743.66C2554.6 1743.22 2553.03 1742.6 2551.56 1741.79C2550.09 1740.91 2548.88 1739.85 2547.93 1738.6V1761.37H2535.28ZM2558.27 1734.64C2559.88 1734.64 2561.39 1734.35 2562.78 1733.76C2564.17 1733.17 2565.38 1732.22 2566.41 1730.9C2567.51 1729.51 2568.35 1727.67 2568.94 1725.4C2569.53 1723.13 2569.82 1720.3 2569.82 1716.93C2569.82 1713.56 2569.38 1710.66 2568.5 1708.24C2567.62 1705.75 2566.37 1703.84 2564.76 1702.52C2563.15 1701.2 2561.2 1700.5 2558.93 1700.43C2557.17 1700.36 2555.59 1700.65 2554.2 1701.31C2552.88 1701.97 2551.74 1703.03 2550.79 1704.5C2549.84 1705.97 2549.1 1707.84 2548.59 1710.11C2548.08 1712.38 2547.82 1715.13 2547.82 1718.36C2547.89 1720.56 2548.08 1722.54 2548.37 1724.3C2548.66 1726.06 2549.07 1727.6 2549.58 1728.92C2550.17 1730.17 2550.86 1731.23 2551.67 1732.11C2552.48 1732.92 2553.43 1733.54 2554.53 1733.98C2555.63 1734.42 2556.88 1734.64 2558.27 1734.64ZM2590.28 1761.37L2590.17 1691.74H2602.49V1698.89C2603.66 1696.98 2604.95 1695.44 2606.34 1694.27C2607.81 1693.02 2609.42 1692.11 2611.18 1691.52C2613.01 1690.93 2614.92 1690.64 2616.9 1690.64C2619.69 1690.64 2622.29 1691.23 2624.71 1692.4C2627.2 1693.5 2629.37 1695.19 2631.2 1697.46C2633.03 1699.73 2634.46 1702.56 2635.49 1705.93C2636.59 1709.23 2637.14 1713.12 2637.14 1717.59C2637.14 1722.06 2636.59 1725.99 2635.49 1729.36C2634.39 1732.73 2632.85 1735.52 2630.87 1737.72C2628.96 1739.92 2626.76 1741.57 2624.27 1742.67C2621.85 1743.77 2619.32 1744.32 2616.68 1744.32C2614.85 1744.32 2613.05 1744.1 2611.29 1743.66C2609.6 1743.22 2608.03 1742.6 2606.56 1741.79C2605.09 1740.91 2603.88 1739.85 2602.93 1738.6V1761.37H2590.28ZM2613.27 1734.64C2614.88 1734.64 2616.39 1734.35 2617.78 1733.76C2619.17 1733.17 2620.38 1732.22 2621.41 1730.9C2622.51 1729.51 2623.35 1727.67 2623.94 1725.4C2624.53 1723.13 2624.82 1720.3 2624.82 1716.93C2624.82 1713.56 2624.38 1710.66 2623.5 1708.24C2622.62 1705.75 2621.37 1703.84 2619.76 1702.52C2618.15 1701.2 2616.2 1700.5 2613.93 1700.43C2612.17 1700.36 2610.59 1700.65 2609.2 1701.31C2607.88 1701.97 2606.74 1703.03 2605.79 1704.5C2604.84 1705.97 2604.1 1707.84 2603.59 1710.11C2603.08 1712.38 2602.82 1715.13 2602.82 1718.36C2602.89 1720.56 2603.08 1722.54 2603.37 1724.3C2603.66 1726.06 2604.07 1727.6 2604.58 1728.92C2605.17 1730.17 2605.86 1731.23 2606.67 1732.11C2607.48 1732.92 2608.43 1733.54 2609.53 1733.98C2610.63 1734.42 2611.88 1734.64 2613.27 1734.64ZM2669.81 1744.21C2666.14 1744.21 2662.73 1743.62 2659.58 1742.45C2656.5 1741.28 2653.79 1739.59 2651.44 1737.39C2649.17 1735.12 2647.41 1732.33 2646.16 1729.03C2644.91 1725.73 2644.29 1721.99 2644.29 1717.81C2644.29 1713.56 2644.91 1709.74 2646.16 1706.37C2647.41 1703 2649.09 1700.14 2651.22 1697.79C2653.42 1695.44 2655.99 1693.68 2658.92 1692.51C2661.85 1691.26 2665.01 1690.64 2668.38 1690.64C2671.39 1690.64 2674.21 1691.15 2676.85 1692.18C2679.49 1693.21 2681.8 1694.78 2683.78 1696.91C2685.83 1698.96 2687.45 1701.57 2688.62 1704.72C2689.79 1707.8 2690.38 1711.39 2690.38 1715.5C2690.38 1716.23 2690.34 1717.11 2690.27 1718.14C2690.27 1719.17 2690.23 1720.05 2690.16 1720.78H2656.28C2656.43 1723.2 2656.9 1725.29 2657.71 1727.05C2658.52 1728.74 2659.58 1730.13 2660.9 1731.23C2662.22 1732.33 2663.69 1733.17 2665.3 1733.76C2666.91 1734.27 2668.6 1734.53 2670.36 1734.53C2671.9 1734.53 2673.37 1734.38 2674.76 1734.09C2676.23 1733.8 2677.58 1733.28 2678.83 1732.55C2680.15 1731.82 2681.4 1730.86 2682.57 1729.69L2688.95 1735.85C2687.34 1737.76 2685.5 1739.37 2683.45 1740.69C2681.47 1741.94 2679.31 1742.82 2676.96 1743.33C2674.69 1743.92 2672.3 1744.21 2669.81 1744.21ZM2656.5 1711.43H2678.28C2678.28 1709.67 2678.02 1708.09 2677.51 1706.7C2677.07 1705.31 2676.41 1704.13 2675.53 1703.18C2674.65 1702.23 2673.55 1701.53 2672.23 1701.09C2670.98 1700.58 2669.52 1700.32 2667.83 1700.32C2666.44 1700.32 2665.08 1700.54 2663.76 1700.98C2662.51 1701.35 2661.38 1702.01 2660.35 1702.96C2659.32 1703.91 2658.48 1705.09 2657.82 1706.48C2657.16 1707.87 2656.72 1709.52 2656.5 1711.43ZM2698.3 1743V1691.85H2708.75V1695.59C2709.63 1694.42 2710.55 1693.46 2711.5 1692.73C2712.45 1692 2713.44 1691.48 2714.47 1691.19C2715.57 1690.82 2716.63 1690.64 2717.66 1690.64C2718.91 1690.64 2720.08 1690.86 2721.18 1691.3C2722.28 1691.67 2723.27 1692.33 2724.15 1693.28C2725.1 1694.16 2725.84 1695.33 2726.35 1696.8C2727.16 1695.41 2728.07 1694.27 2729.1 1693.39C2730.13 1692.44 2731.3 1691.74 2732.62 1691.3C2734.01 1690.86 2735.52 1690.64 2737.13 1690.64C2739.04 1690.64 2740.65 1690.97 2741.97 1691.63C2743.29 1692.29 2744.35 1693.24 2745.16 1694.49C2746.04 1695.74 2746.66 1697.28 2747.03 1699.11C2747.4 1700.94 2747.58 1703 2747.58 1705.27V1743H2736.8V1707.91C2736.8 1705.71 2736.69 1704.02 2736.47 1702.85C2736.25 1701.6 2735.92 1700.76 2735.48 1700.32C2735.04 1699.81 2734.45 1699.55 2733.72 1699.55C2732.77 1699.55 2731.85 1700.03 2730.97 1700.98C2730.09 1701.86 2729.36 1703.11 2728.77 1704.72C2728.26 1706.26 2728 1708.09 2728 1710.22V1743H2717.88V1708.24C2717.88 1704.72 2717.62 1702.37 2717.11 1701.2C2716.6 1700.03 2715.64 1699.44 2714.25 1699.44C2713.59 1699.44 2712.93 1699.66 2712.27 1700.1C2711.68 1700.54 2711.13 1701.2 2710.62 1702.08C2710.18 1702.89 2709.81 1703.95 2709.52 1705.27C2709.23 1706.52 2709.08 1707.95 2709.08 1709.56V1743H2698.3ZM2779.81 1744.21C2776.14 1744.21 2772.73 1743.62 2769.58 1742.45C2766.5 1741.28 2763.79 1739.59 2761.44 1737.39C2759.17 1735.12 2757.41 1732.33 2756.16 1729.03C2754.91 1725.73 2754.29 1721.99 2754.29 1717.81C2754.29 1713.56 2754.91 1709.74 2756.16 1706.37C2757.41 1703 2759.09 1700.14 2761.22 1697.79C2763.42 1695.44 2765.99 1693.68 2768.92 1692.51C2771.85 1691.26 2775.01 1690.64 2778.38 1690.64C2781.39 1690.64 2784.21 1691.15 2786.85 1692.18C2789.49 1693.21 2791.8 1694.78 2793.78 1696.91C2795.83 1698.96 2797.45 1701.57 2798.62 1704.72C2799.79 1707.8 2800.38 1711.39 2800.38 1715.5C2800.38 1716.23 2800.34 1717.11 2800.27 1718.14C2800.27 1719.17 2800.23 1720.05 2800.16 1720.78H2766.28C2766.43 1723.2 2766.9 1725.29 2767.71 1727.05C2768.52 1728.74 2769.58 1730.13 2770.9 1731.23C2772.22 1732.33 2773.69 1733.17 2775.3 1733.76C2776.91 1734.27 2778.6 1734.53 2780.36 1734.53C2781.9 1734.53 2783.37 1734.38 2784.76 1734.09C2786.23 1733.8 2787.58 1733.28 2788.83 1732.55C2790.15 1731.82 2791.4 1730.86 2792.57 1729.69L2798.95 1735.85C2797.34 1737.76 2795.5 1739.37 2793.45 1740.69C2791.47 1741.94 2789.31 1742.82 2786.96 1743.33C2784.69 1743.92 2782.3 1744.21 2779.81 1744.21ZM2766.5 1711.43H2788.28C2788.28 1709.67 2788.02 1708.09 2787.51 1706.7C2787.07 1705.31 2786.41 1704.13 2785.53 1703.18C2784.65 1702.23 2783.55 1701.53 2782.23 1701.09C2780.98 1700.58 2779.52 1700.32 2777.83 1700.32C2776.44 1700.32 2775.08 1700.54 2773.76 1700.98C2772.51 1701.35 2771.38 1702.01 2770.35 1702.96C2769.32 1703.91 2768.48 1705.09 2767.82 1706.48C2767.16 1707.87 2766.72 1709.52 2766.5 1711.43ZM2811.05 1743V1691.85H2823.48V1698.89C2824.73 1697.28 2826.08 1695.85 2827.55 1694.6C2829.02 1693.35 2830.63 1692.4 2832.39 1691.74C2834.22 1691.01 2836.17 1690.64 2838.22 1690.64C2841.23 1690.64 2843.98 1691.37 2846.47 1692.84C2848.96 1694.23 2850.98 1696.51 2852.52 1699.66C2854.06 1702.81 2854.83 1706.96 2854.83 1712.09V1743H2842.4V1712.31C2842.4 1709.45 2842.11 1707.14 2841.52 1705.38C2840.93 1703.62 2840.05 1702.34 2838.88 1701.53C2837.78 1700.65 2836.46 1700.21 2834.92 1700.21C2833.53 1700.21 2832.13 1700.5 2830.74 1701.09C2829.42 1701.6 2828.21 1702.41 2827.11 1703.51C2826.01 1704.61 2825.13 1705.93 2824.47 1707.47C2823.81 1708.94 2823.48 1710.62 2823.48 1712.53V1743H2811.05ZM2892.89 1744.1C2889.96 1744.1 2887.39 1743.62 2885.19 1742.67C2883.06 1741.72 2881.27 1740.18 2879.8 1738.05C2878.41 1735.92 2877.38 1733.1 2876.72 1729.58C2876.13 1726.06 2875.95 1721.7 2876.17 1716.49L2877.6 1679.75L2890.47 1678.1L2891.46 1677.99L2891.57 1678.98C2891.28 1679.49 2890.98 1680.01 2890.69 1680.52C2890.4 1681.03 2890.21 1681.91 2890.14 1683.16L2888.93 1698.34L2889.48 1699.11L2888.6 1716.27C2888.38 1721.04 2888.53 1724.74 2889.04 1727.38C2889.63 1729.95 2890.47 1731.71 2891.57 1732.66C2892.74 1733.61 2894.14 1734.09 2895.75 1734.09C2898.1 1734.09 2900.19 1733.61 2902.02 1732.66C2903.93 1731.71 2905.69 1730.61 2907.3 1729.36L2909.94 1738.38C2907.45 1740.21 2904.77 1741.64 2901.91 1742.67C2899.12 1743.62 2896.12 1744.1 2892.89 1744.1ZM2866.49 1691.85H2905.87L2905.76 1701.64H2866.27L2866.49 1691.85ZM2999.81 1744.21C2996.14 1744.21 2992.73 1743.62 2989.58 1742.45C2986.5 1741.28 2983.79 1739.59 2981.44 1737.39C2979.17 1735.12 2977.41 1732.33 2976.16 1729.03C2974.91 1725.73 2974.29 1721.99 2974.29 1717.81C2974.29 1713.56 2974.91 1709.74 2976.16 1706.37C2977.41 1703 2979.09 1700.14 2981.22 1697.79C2983.42 1695.44 2985.99 1693.68 2988.92 1692.51C2991.85 1691.26 2995.01 1690.64 2998.38 1690.64C3001.39 1690.64 3004.21 1691.15 3006.85 1692.18C3009.49 1693.21 3011.8 1694.78 3013.78 1696.91C3015.83 1698.96 3017.45 1701.57 3018.62 1704.72C3019.79 1707.8 3020.38 1711.39 3020.38 1715.5C3020.38 1716.23 3020.34 1717.11 3020.27 1718.14C3020.27 1719.17 3020.23 1720.05 3020.16 1720.78H2986.28C2986.43 1723.2 2986.9 1725.29 2987.71 1727.05C2988.52 1728.74 2989.58 1730.13 2990.9 1731.23C2992.22 1732.33 2993.69 1733.17 2995.3 1733.76C2996.91 1734.27 2998.6 1734.53 3000.36 1734.53C3001.9 1734.53 3003.37 1734.38 3004.76 1734.09C3006.23 1733.8 3007.58 1733.28 3008.83 1732.55C3010.15 1731.82 3011.4 1730.86 3012.57 1729.69L3018.95 1735.85C3017.34 1737.76 3015.5 1739.37 3013.45 1740.69C3011.47 1741.94 3009.31 1742.82 3006.96 1743.33C3004.69 1743.92 3002.3 1744.21 2999.81 1744.21ZM2986.5 1711.43H3008.28C3008.28 1709.67 3008.02 1708.09 3007.51 1706.7C3007.07 1705.31 3006.41 1704.13 3005.53 1703.18C3004.65 1702.23 3003.55 1701.53 3002.23 1701.09C3000.98 1700.58 2999.52 1700.32 2997.83 1700.32C2996.44 1700.32 2995.08 1700.54 2993.76 1700.98C2992.51 1701.35 2991.38 1702.01 2990.35 1702.96C2989.32 1703.91 2988.48 1705.09 2987.82 1706.48C2987.16 1707.87 2986.72 1709.52 2986.5 1711.43ZM3057.89 1744.1C3054.96 1744.1 3052.39 1743.62 3050.19 1742.67C3048.06 1741.72 3046.27 1740.18 3044.8 1738.05C3043.41 1735.92 3042.38 1733.1 3041.72 1729.58C3041.13 1726.06 3040.95 1721.7 3041.17 1716.49L3042.6 1679.75L3055.47 1678.1L3056.46 1677.99L3056.57 1678.98C3056.28 1679.49 3055.98 1680.01 3055.69 1680.52C3055.4 1681.03 3055.21 1681.91 3055.14 1683.16L3053.93 1698.34L3054.48 1699.11L3053.6 1716.27C3053.38 1721.04 3053.53 1724.74 3054.04 1727.38C3054.63 1729.95 3055.47 1731.71 3056.57 1732.66C3057.74 1733.61 3059.14 1734.09 3060.75 1734.09C3063.1 1734.09 3065.19 1733.61 3067.02 1732.66C3068.93 1731.71 3070.69 1730.61 3072.3 1729.36L3074.94 1738.38C3072.45 1740.21 3069.77 1741.64 3066.91 1742.67C3064.12 1743.62 3061.12 1744.1 3057.89 1744.1ZM3031.49 1691.85H3070.87L3070.76 1701.64H3031.27L3031.49 1691.85ZM3159.86 1744.21C3157 1744.21 3154.29 1743.66 3151.72 1742.56C3149.23 1741.46 3146.99 1739.77 3145.01 1737.5C3143.03 1735.23 3141.45 1732.4 3140.28 1729.03C3139.18 1725.66 3138.63 1721.7 3138.63 1717.15C3138.63 1712.75 3139.18 1708.9 3140.28 1705.6C3141.38 1702.23 3142.88 1699.44 3144.79 1697.24C3146.77 1694.97 3149.04 1693.28 3151.61 1692.18C3154.18 1691.08 3156.96 1690.53 3159.97 1690.53C3161.66 1690.53 3163.27 1690.75 3164.81 1691.19C3166.42 1691.63 3167.85 1692.29 3169.1 1693.17C3170.42 1693.98 3171.48 1695.11 3172.29 1696.58V1669.19H3184.5H3185.6V1670.18C3185.16 1670.62 3184.87 1671.1 3184.72 1671.61C3184.65 1672.12 3184.61 1673 3184.61 1674.25L3184.5 1736.18C3184.5 1737.35 3184.57 1738.49 3184.72 1739.59C3184.87 1740.69 3185.2 1741.83 3185.71 1743H3173.5C3173.13 1742.19 3172.88 1741.53 3172.73 1741.02C3172.58 1740.51 3172.47 1739.99 3172.4 1739.48C3172.4 1738.89 3172.4 1738.2 3172.4 1737.39C3171.52 1738.93 3170.42 1740.21 3169.1 1741.24C3167.78 1742.27 3166.35 1743 3164.81 1743.44C3163.27 1743.95 3161.62 1744.21 3159.86 1744.21ZM3161.95 1734.2C3163.64 1734.2 3165.1 1733.87 3166.35 1733.21C3167.67 1732.48 3168.73 1731.41 3169.54 1730.02C3170.42 1728.63 3171.04 1726.87 3171.41 1724.74C3171.85 1722.54 3172.07 1720.05 3172.07 1717.26C3172.07 1713.45 3171.7 1710.29 3170.97 1707.8C3170.24 1705.23 3169.1 1703.33 3167.56 1702.08C3166.02 1700.83 3164.04 1700.21 3161.62 1700.21C3159.93 1700.21 3158.39 1700.61 3157 1701.42C3155.61 1702.15 3154.47 1703.25 3153.59 1704.72C3152.71 1706.19 3152.01 1707.95 3151.5 1710C3151.06 1712.05 3150.84 1714.36 3150.84 1716.93C3150.84 1720.52 3151.32 1723.6 3152.27 1726.17C3153.3 1728.74 3154.65 1730.72 3156.34 1732.11C3158.03 1733.5 3159.9 1734.2 3161.95 1734.2ZM3219.81 1744.21C3216.14 1744.21 3212.73 1743.62 3209.58 1742.45C3206.5 1741.28 3203.79 1739.59 3201.44 1737.39C3199.17 1735.12 3197.41 1732.33 3196.16 1729.03C3194.91 1725.73 3194.29 1721.99 3194.29 1717.81C3194.29 1713.56 3194.91 1709.74 3196.16 1706.37C3197.41 1703 3199.09 1700.14 3201.22 1697.79C3203.42 1695.44 3205.99 1693.68 3208.92 1692.51C3211.85 1691.26 3215.01 1690.64 3218.38 1690.64C3221.39 1690.64 3224.21 1691.15 3226.85 1692.18C3229.49 1693.21 3231.8 1694.78 3233.78 1696.91C3235.83 1698.96 3237.45 1701.57 3238.62 1704.72C3239.79 1707.8 3240.38 1711.39 3240.38 1715.5C3240.38 1716.23 3240.34 1717.11 3240.27 1718.14C3240.27 1719.17 3240.23 1720.05 3240.16 1720.78H3206.28C3206.43 1723.2 3206.9 1725.29 3207.71 1727.05C3208.52 1728.74 3209.58 1730.13 3210.9 1731.23C3212.22 1732.33 3213.69 1733.17 3215.3 1733.76C3216.91 1734.27 3218.6 1734.53 3220.36 1734.53C3221.9 1734.53 3223.37 1734.38 3224.76 1734.09C3226.23 1733.8 3227.58 1733.28 3228.83 1732.55C3230.15 1731.82 3231.4 1730.86 3232.57 1729.69L3238.95 1735.85C3237.34 1737.76 3235.5 1739.37 3233.45 1740.69C3231.47 1741.94 3229.31 1742.82 3226.96 1743.33C3224.69 1743.92 3222.3 1744.21 3219.81 1744.21ZM3206.5 1711.43H3228.28C3228.28 1709.67 3228.02 1708.09 3227.51 1706.7C3227.07 1705.31 3226.41 1704.13 3225.53 1703.18C3224.65 1702.23 3223.55 1701.53 3222.23 1701.09C3220.98 1700.58 3219.52 1700.32 3217.83 1700.32C3216.44 1700.32 3215.08 1700.54 3213.76 1700.98C3212.51 1701.35 3211.38 1702.01 3210.35 1702.96C3209.32 1703.91 3208.48 1705.09 3207.82 1706.48C3207.16 1707.87 3206.72 1709.52 3206.5 1711.43ZM3216.62 1687.56L3210.9 1683.93L3220.03 1665.67L3228.72 1671.94L3216.62 1687.56ZM3250.28 1761.37L3250.17 1691.74H3262.49V1698.89C3263.66 1696.98 3264.95 1695.44 3266.34 1694.27C3267.81 1693.02 3269.42 1692.11 3271.18 1691.52C3273.01 1690.93 3274.92 1690.64 3276.9 1690.64C3279.69 1690.64 3282.29 1691.23 3284.71 1692.4C3287.2 1693.5 3289.37 1695.19 3291.2 1697.46C3293.03 1699.73 3294.46 1702.56 3295.49 1705.93C3296.59 1709.23 3297.14 1713.12 3297.14 1717.59C3297.14 1722.06 3296.59 1725.99 3295.49 1729.36C3294.39 1732.73 3292.85 1735.52 3290.87 1737.72C3288.96 1739.92 3286.76 1741.57 3284.27 1742.67C3281.85 1743.77 3279.32 1744.32 3276.68 1744.32C3274.85 1744.32 3273.05 1744.1 3271.29 1743.66C3269.6 1743.22 3268.03 1742.6 3266.56 1741.79C3265.09 1740.91 3263.88 1739.85 3262.93 1738.6V1761.37H3250.28ZM3273.27 1734.64C3274.88 1734.64 3276.39 1734.35 3277.78 1733.76C3279.17 1733.17 3280.38 1732.22 3281.41 1730.9C3282.51 1729.51 3283.35 1727.67 3283.94 1725.4C3284.53 1723.13 3284.82 1720.3 3284.82 1716.93C3284.82 1713.56 3284.38 1710.66 3283.5 1708.24C3282.62 1705.75 3281.37 1703.84 3279.76 1702.52C3278.15 1701.2 3276.2 1700.5 3273.93 1700.43C3272.17 1700.36 3270.59 1700.65 3269.2 1701.31C3267.88 1701.97 3266.74 1703.03 3265.79 1704.5C3264.84 1705.97 3264.1 1707.84 3263.59 1710.11C3263.08 1712.38 3262.82 1715.13 3262.82 1718.36C3262.89 1720.56 3263.08 1722.54 3263.37 1724.3C3263.66 1726.06 3264.07 1727.6 3264.58 1728.92C3265.17 1730.17 3265.86 1731.23 3266.67 1732.11C3267.48 1732.92 3268.43 1733.54 3269.53 1733.98C3270.63 1734.42 3271.88 1734.64 3273.27 1734.64ZM3306.93 1743V1733.21H3321.34V1678.98H3307.59V1669.19H3333.88V1733.21H3348.18V1743H3306.93ZM3382.39 1744.1C3377.84 1744.1 3373.7 1743 3369.96 1740.8C3366.29 1738.53 3363.4 1735.37 3361.27 1731.34C3359.14 1727.31 3358.08 1722.65 3358.08 1717.37C3358.08 1712.31 3359.14 1707.76 3361.27 1703.73C3363.4 1699.7 3366.29 1696.51 3369.96 1694.16C3373.7 1691.81 3377.84 1690.64 3382.39 1690.64C3387.01 1690.64 3391.15 1691.81 3394.82 1694.16C3398.56 1696.51 3401.49 1699.7 3403.62 1703.73C3405.82 1707.76 3406.92 1712.31 3406.92 1717.37C3406.92 1722.65 3405.82 1727.31 3403.62 1731.34C3401.49 1735.37 3398.56 1738.53 3394.82 1740.8C3391.15 1743 3387.01 1744.1 3382.39 1744.1ZM3382.39 1734.2C3384.81 1734.2 3386.9 1733.5 3388.66 1732.11C3390.42 1730.64 3391.81 1728.66 3392.84 1726.17C3393.94 1723.6 3394.49 1720.67 3394.49 1717.37C3394.49 1713.92 3393.94 1710.95 3392.84 1708.46C3391.81 1705.97 3390.42 1704.06 3388.66 1702.74C3386.9 1701.35 3384.81 1700.65 3382.39 1700.65C3380.19 1700.65 3378.17 1701.35 3376.34 1702.74C3374.58 1704.06 3373.15 1705.97 3372.05 1708.46C3371.02 1710.95 3370.51 1713.92 3370.51 1717.37C3370.51 1720.67 3371.02 1723.6 3372.05 1726.17C3373.08 1728.66 3374.47 1730.64 3376.23 1732.11C3378.06 1733.5 3380.12 1734.2 3382.39 1734.2ZM3419.24 1743V1733.21H3431.78V1701.64H3419.9V1691.85H3444.32V1733.21H3455.76V1743H3419.24ZM3437.5 1683.38C3435.37 1683.38 3433.54 1682.65 3432 1681.18C3430.46 1679.71 3429.69 1677.95 3429.69 1675.9C3429.69 1673.7 3430.42 1671.9 3431.89 1670.51C3433.36 1669.12 3435.23 1668.42 3437.5 1668.42C3439.55 1668.42 3441.35 1669.15 3442.89 1670.62C3444.5 1672.09 3445.31 1673.85 3445.31 1675.9C3445.31 1677.95 3444.5 1679.71 3442.89 1681.18C3441.35 1682.65 3439.55 1683.38 3437.5 1683.38ZM3494.81 1744.21C3491.14 1744.21 3487.73 1743.62 3484.58 1742.45C3481.5 1741.28 3478.79 1739.59 3476.44 1737.39C3474.17 1735.12 3472.41 1732.33 3471.16 1729.03C3469.91 1725.73 3469.29 1721.99 3469.29 1717.81C3469.29 1713.56 3469.91 1709.74 3471.16 1706.37C3472.41 1703 3474.09 1700.14 3476.22 1697.79C3478.42 1695.44 3480.99 1693.68 3483.92 1692.51C3486.85 1691.26 3490.01 1690.64 3493.38 1690.64C3496.39 1690.64 3499.21 1691.15 3501.85 1692.18C3504.49 1693.21 3506.8 1694.78 3508.78 1696.91C3510.83 1698.96 3512.45 1701.57 3513.62 1704.72C3514.79 1707.8 3515.38 1711.39 3515.38 1715.5C3515.38 1716.23 3515.34 1717.11 3515.27 1718.14C3515.27 1719.17 3515.23 1720.05 3515.16 1720.78H3481.28C3481.43 1723.2 3481.9 1725.29 3482.71 1727.05C3483.52 1728.74 3484.58 1730.13 3485.9 1731.23C3487.22 1732.33 3488.69 1733.17 3490.3 1733.76C3491.91 1734.27 3493.6 1734.53 3495.36 1734.53C3496.9 1734.53 3498.37 1734.38 3499.76 1734.09C3501.23 1733.8 3502.58 1733.28 3503.83 1732.55C3505.15 1731.82 3506.4 1730.86 3507.57 1729.69L3513.95 1735.85C3512.34 1737.76 3510.5 1739.37 3508.45 1740.69C3506.47 1741.94 3504.31 1742.82 3501.96 1743.33C3499.69 1743.92 3497.3 1744.21 3494.81 1744.21ZM3481.5 1711.43H3503.28C3503.28 1709.67 3503.02 1708.09 3502.51 1706.7C3502.07 1705.31 3501.41 1704.13 3500.53 1703.18C3499.65 1702.23 3498.55 1701.53 3497.23 1701.09C3495.98 1700.58 3494.52 1700.32 3492.83 1700.32C3491.44 1700.32 3490.08 1700.54 3488.76 1700.98C3487.51 1701.35 3486.38 1702.01 3485.35 1702.96C3484.32 1703.91 3483.48 1705.09 3482.82 1706.48C3482.16 1707.87 3481.72 1709.52 3481.5 1711.43ZM3523.3 1743V1691.85H3533.75V1695.59C3534.63 1694.42 3535.55 1693.46 3536.5 1692.73C3537.45 1692 3538.44 1691.48 3539.47 1691.19C3540.57 1690.82 3541.63 1690.64 3542.66 1690.64C3543.91 1690.64 3545.08 1690.86 3546.18 1691.3C3547.28 1691.67 3548.27 1692.33 3549.15 1693.28C3550.1 1694.16 3550.84 1695.33 3551.35 1696.8C3552.16 1695.41 3553.07 1694.27 3554.1 1693.39C3555.13 1692.44 3556.3 1691.74 3557.62 1691.3C3559.01 1690.86 3560.52 1690.64 3562.13 1690.64C3564.04 1690.64 3565.65 1690.97 3566.97 1691.63C3568.29 1692.29 3569.35 1693.24 3570.16 1694.49C3571.04 1695.74 3571.66 1697.28 3572.03 1699.11C3572.4 1700.94 3572.58 1703 3572.58 1705.27V1743H3561.8V1707.91C3561.8 1705.71 3561.69 1704.02 3561.47 1702.85C3561.25 1701.6 3560.92 1700.76 3560.48 1700.32C3560.04 1699.81 3559.45 1699.55 3558.72 1699.55C3557.77 1699.55 3556.85 1700.03 3555.97 1700.98C3555.09 1701.86 3554.36 1703.11 3553.77 1704.72C3553.26 1706.26 3553 1708.09 3553 1710.22V1743H3542.88V1708.24C3542.88 1704.72 3542.62 1702.37 3542.11 1701.2C3541.6 1700.03 3540.64 1699.44 3539.25 1699.44C3538.59 1699.44 3537.93 1699.66 3537.27 1700.1C3536.68 1700.54 3536.13 1701.2 3535.62 1702.08C3535.18 1702.89 3534.81 1703.95 3534.52 1705.27C3534.23 1706.52 3534.08 1707.95 3534.08 1709.56V1743H3523.3ZM3604.81 1744.21C3601.14 1744.21 3597.73 1743.62 3594.58 1742.45C3591.5 1741.28 3588.79 1739.59 3586.44 1737.39C3584.17 1735.12 3582.41 1732.33 3581.16 1729.03C3579.91 1725.73 3579.29 1721.99 3579.29 1717.81C3579.29 1713.56 3579.91 1709.74 3581.16 1706.37C3582.41 1703 3584.09 1700.14 3586.22 1697.79C3588.42 1695.44 3590.99 1693.68 3593.92 1692.51C3596.85 1691.26 3600.01 1690.64 3603.38 1690.64C3606.39 1690.64 3609.21 1691.15 3611.85 1692.18C3614.49 1693.21 3616.8 1694.78 3618.78 1696.91C3620.83 1698.96 3622.45 1701.57 3623.62 1704.72C3624.79 1707.8 3625.38 1711.39 3625.38 1715.5C3625.38 1716.23 3625.34 1717.11 3625.27 1718.14C3625.27 1719.17 3625.23 1720.05 3625.16 1720.78H3591.28C3591.43 1723.2 3591.9 1725.29 3592.71 1727.05C3593.52 1728.74 3594.58 1730.13 3595.9 1731.23C3597.22 1732.33 3598.69 1733.17 3600.3 1733.76C3601.91 1734.27 3603.6 1734.53 3605.36 1734.53C3606.9 1734.53 3608.37 1734.38 3609.76 1734.09C3611.23 1733.8 3612.58 1733.28 3613.83 1732.55C3615.15 1731.82 3616.4 1730.86 3617.57 1729.69L3623.95 1735.85C3622.34 1737.76 3620.5 1739.37 3618.45 1740.69C3616.47 1741.94 3614.31 1742.82 3611.96 1743.33C3609.69 1743.92 3607.3 1744.21 3604.81 1744.21ZM3591.5 1711.43H3613.28C3613.28 1709.67 3613.02 1708.09 3612.51 1706.7C3612.07 1705.31 3611.41 1704.13 3610.53 1703.18C3609.65 1702.23 3608.55 1701.53 3607.23 1701.09C3605.98 1700.58 3604.52 1700.32 3602.83 1700.32C3601.44 1700.32 3600.08 1700.54 3598.76 1700.98C3597.51 1701.35 3596.38 1702.01 3595.35 1702.96C3594.32 1703.91 3593.48 1705.09 3592.82 1706.48C3592.16 1707.87 3591.72 1709.52 3591.5 1711.43ZM3636.05 1743V1691.85H3648.48V1698.89C3649.73 1697.28 3651.08 1695.85 3652.55 1694.6C3654.02 1693.35 3655.63 1692.4 3657.39 1691.74C3659.22 1691.01 3661.17 1690.64 3663.22 1690.64C3666.23 1690.64 3668.98 1691.37 3671.47 1692.84C3673.96 1694.23 3675.98 1696.51 3677.52 1699.66C3679.06 1702.81 3679.83 1706.96 3679.83 1712.09V1743H3667.4V1712.31C3667.4 1709.45 3667.11 1707.14 3666.52 1705.38C3665.93 1703.62 3665.05 1702.34 3663.88 1701.53C3662.78 1700.65 3661.46 1700.21 3659.92 1700.21C3658.53 1700.21 3657.13 1700.5 3655.74 1701.09C3654.42 1701.6 3653.21 1702.41 3652.11 1703.51C3651.01 1704.61 3650.13 1705.93 3649.47 1707.47C3648.81 1708.94 3648.48 1710.62 3648.48 1712.53V1743H3636.05ZM3717.89 1744.1C3714.96 1744.1 3712.39 1743.62 3710.19 1742.67C3708.06 1741.72 3706.27 1740.18 3704.8 1738.05C3703.41 1735.92 3702.38 1733.1 3701.72 1729.58C3701.13 1726.06 3700.95 1721.7 3701.17 1716.49L3702.6 1679.75L3715.47 1678.1L3716.46 1677.99L3716.57 1678.98C3716.28 1679.49 3715.98 1680.01 3715.69 1680.52C3715.4 1681.03 3715.21 1681.91 3715.14 1683.16L3713.93 1698.34L3714.48 1699.11L3713.6 1716.27C3713.38 1721.04 3713.53 1724.74 3714.04 1727.38C3714.63 1729.95 3715.47 1731.71 3716.57 1732.66C3717.74 1733.61 3719.14 1734.09 3720.75 1734.09C3723.1 1734.09 3725.19 1733.61 3727.02 1732.66C3728.93 1731.71 3730.69 1730.61 3732.3 1729.36L3734.94 1738.38C3732.45 1740.21 3729.77 1741.64 3726.91 1742.67C3724.12 1743.62 3721.12 1744.1 3717.89 1744.1ZM3691.49 1691.85H3730.87L3730.76 1701.64H3691.27L3691.49 1691.85Z" fill="white"/>
</g>
<defs>
<filter id="filter0_f_175_421" x="-234" y="0" width="5553" height="2676" filterUnits="userSpaceOnUse" color-interpolation-filters="sRGB">
<feFlood flood-opacity="0" result="BackgroundImageFix"/>
<feBlend mode="normal" in="SourceGraphic" in2="BackgroundImageFix" result="shape"/>
<feGaussianBlur stdDeviation="250" result="effect1_foregroundBlur_175_421"/>
</filter>
<filter id="filter1_d_175_421" x="848.625" y="1055.19" width="3290.62" height="720.988" filterUnits="userSpaceOnUse" color-interpolation-filters="sRGB">
<feFlood flood-opacity="0" result="BackgroundImageFix"/>
<feColorMatrix in="SourceAlpha" type="matrix" values="0 0 0 0 0 0 0 0 0 0 0 0 0 0 0 0 0 0 127 0" result="hardAlpha"/>
<feOffset dy="4"/>
<feGaussianBlur stdDeviation="2"/>
<feComposite in2="hardAlpha" operator="out"/>
<feColorMatrix type="matrix" values="0 0 0 0 0 0 0 0 0 0 0 0 0 0 0 0 0 0 1 0"/>
<feBlend mode="normal" in2="BackgroundImageFix" result="effect1_dropShadow_175_421"/>
<feBlend mode="normal" in="SourceGraphic" in2="effect1_dropShadow_175_421" result="shape"/>
</filter>
<filter id="filter2_d_175_421" x="2200.62" y="1665.67" width="1538.32" height="103.7" filterUnits="userSpaceOnUse" color-interpolation-filters="sRGB">
<feFlood flood-opacity="0" result="BackgroundImageFix"/>
<feColorMatrix in="SourceAlpha" type="matrix" values="0 0 0 0 0 0 0 0 0 0 0 0 0 0 0 0 0 0 127 0" result="hardAlpha"/>
<feOffset dy="4"/>
<feGaussianBlur stdDeviation="2"/>
<feComposite in2="hardAlpha" operator="out"/>
<feColorMatrix type="matrix" values="0 0 0 0 0 0 0 0 0 0 0 0 0 0 0 0 0 0 0.25 0"/>
<feBlend mode="normal" in2="BackgroundImageFix" result="effect1_dropShadow_175_421"/>
<feBlend mode="normal" in="SourceGraphic" in2="effect1_dropShadow_175_421" result="shape"/>
</filter>
<linearGradient id="paint0_linear_175_421" x1="4192.76" y1="2176" x2="2488.35" y2="-569.021" gradientUnits="userSpaceOnUse">
<stop stop-color="#005C5D"/>
<stop offset="1" stop-color="#DA107B"/>
</linearGradient>
<linearGradient id="paint1_linear_175_421" x1="3444.34" y1="1287.1" x2="2865.89" y2="665.553" gradientUnits="userSpaceOnUse">
<stop stop-color="#01ECF3"/>
<stop offset="1" stop-color="#DA107B"/>
</linearGradient>
<linearGradient id="paint2_linear_175_421" x1="2963.08" y1="1050.31" x2="3505.35" y2="1203.43" gradientUnits="userSpaceOnUse">
<stop stop-color="#01ECF3"/>
<stop offset="1" stop-color="#DA107B"/>
</linearGradient>
<linearGradient id="paint3_linear_175_421" x1="2895.25" y1="1025.91" x2="3575.53" y2="1212.24" gradientUnits="userSpaceOnUse">
<stop stop-color="#01ECF3"/>
<stop offset="1" stop-color="#DA107B"/>
</linearGradient>
<linearGradient id="paint4_linear_175_421" x1="2895.25" y1="1025.91" x2="3573.03" y2="1208.47" gradientUnits="userSpaceOnUse">
<stop stop-color="#01ECF3"/>
<stop offset="1" stop-color="#DA107B"/>
</linearGradient>
</defs>
</svg>
